PathFileType	4	(X/Y/Z)	Captury_Subj1_walk03.trc
DataRate	CameraRate	NumFrames	NumMarkers	Units	OrigDataRate	OrigDataStartFrame	OrigNumFrames
100.0	100.0	8	47	mm	59.99879837036133	1	121
Frame#	Time		LeftUpLeg_		RightUpLeg_		LeftLeg_		RightLeg_		LeftFoot_		RightFoot_		LeftToeBase_		RightToeBase_		Knee_Lateral_r		Knee_Lateral_l		Ankle_Lateral_r		Ankle_Lateral_l		LeftArm_		LeftForeArm_		LeftHand_		LeftHandEE		RightArm_		RightForeArm_		RightHand_		RightHandEE		Spine_		Spine1_		Spine2_		Spine3_		Spine4_		Spine5_		Spine_x		Spine_y		Spine_z		RASI		LASI		RIPS		LIPS		RTHI		LTHI		RTIB		LTIB		RTOE		LTOE		RHEE		LHEE		RHipAngles		LHipAngles		RKneeAngles		LKneeAngles		RAnkleAngles		LAnkleAngles
			X1	Y1	Z1	X2	Y2	Z2	X3	Y3	Z3	X4	Y4	Z4	X5	Y5	Z5	X6	Y6	Z6	X7	Y7	Z7	X8	Y8	Z8	X9	Y9	Z9	X10	Y10	Z10	X11	Y11	Z11	X12	Y12	Z12	X13	Y13	Z13	X14	Y14	Z14	X15	Y15	Z15	X16	Y16	Z16	X17	Y17	Z17	X18	Y18	Z18	X19	Y19	Z19	X20	Y20	Z20	X21	Y21	Z21	X22	Y22	Z22	X23	Y23	Z23	X24	Y24	Z24	X25	Y25	Z25	X26	Y26	Z26	X27	Y27	Z27	X28	Y28	Z28	X29	Y29	Z29	X30	Y30	Z30	X31	Y31	Z31	X32	Y32	Z32	X33	Y33	Z33	X34	Y34	Z34	X35	Y35	Z35	X36	Y36	Z36	X37	Y37	Z37	X38	Y38	Z38	X39	Y39	Z39	X40	Y40	Z40	X41	Y41	Z41	X42	Y42	Z42	X43	Y43	Z43	X44	Y44	Z44	X45	Y45	Z45	X46	Y46	Z46	X47	Y47	Z47

1	0.00000	-82.97583	-60.57959	28.22427	82.97583	-60.57959	28.22427	-103.28990	-458.62564	22.00194	103.28990	-458.62564	22.00194	-123.14673	-824.65002	53.48004	123.14673	-824.65002	53.48004	-123.14673	-869.35693	-65.26153	123.14673	-869.35693	-65.26153	149.04233	-458.62564	22.00194	-149.04233	-458.62564	22.00194	168.89978	-824.65002	71.78127	-168.89978	-824.65002	71.78127	-127.43814	454.55383	15.09800	-402.80423	441.98566	34.75333	-635.12292	425.93112	51.33599	-719.90771	420.07202	57.38744	127.43814	454.55383	15.09800	402.80423	441.98566	34.75333	635.12292	425.93112	51.33599	719.90771	420.07202	57.38744	0.00000	30.50483	46.56404	0.00000	134.77156	27.94498	0.00000	213.80945	36.41665	0.00000	308.39426	64.53143	0.00000	448.40955	50.19475	4185915979477856304811803089567744.00000	0.00000	4185920931238013446332902686064640.00000	46.54764	30.50483	46.56404	0.00000	77.05247	46.56404	0.00000	30.50483	93.11168	139.64293	2.57624	-65.15030	-139.64293	2.57624	-65.15030	37.23811	2.57624	74.49263	-37.23811	2.57624	74.49263	157.45206	-246.77016	28.22427	-157.45206	-246.77016	28.22427	149.04295	-623.33661	22.00194	-149.04295	-678.24023	22.00194	123.14673	-869.35693	-136.79260	-123.14673	-869.35693	-136.79260	123.14673	-888.70428	99.23309	-123.14673	-888.70428	99.23309	-0.00000	-0.00000	-0.00000	-0.00000	0.00000	0.00000	0.00000	-0.00000	-0.00000	0.00000	0.00000	0.00000	-0.00000	-0.00000	-0.00000	-0.00000	0.00000	0.00000
2	0.01000	809.08018	446.80973	59.31922	879.40779	460.38927	-39.24245	666.20445	90.02474	60.14646	957.97900	73.62094	-20.29330	585.68142	-264.85863	73.08204	1072.13901	-266.23047	-2.46075	509.97236	-289.39979	29.96528	1013.39519	-332.53033	-50.52804	973.69181	68.81466	-47.19652	649.62592	87.61447	87.43759	1098.11997	-266.66689	-23.68866	579.79255	-269.97280	106.74562	794.79315	954.76890	96.46406	723.63207	792.33816	138.93505	646.11841	650.45192	177.71623	615.33164	597.34609	185.31445	878.34069	954.45505	-60.67402	946.88629	799.59229	-110.36332	928.48872	708.21385	-107.01642	923.18218	673.80497	-97.74297	860.56084	542.74827	25.29063	853.12288	644.38516	23.74963	860.04229	720.20542	29.24521	877.98127	811.51918	39.77118	869.80034	948.59363	30.78344	4185915979477856304811803089567744.00000	0.00000	4185920931238013446332902686064640.00000	880.28695	546.55719	-2.35485	863.30771	588.88533	29.19199	888.33193	539.87461	44.62585	851.44033	533.38954	-106.39113	733.08372	510.53600	59.48173	891.35630	516.38901	12.43457	859.79453	510.29471	56.66733	940.12399	273.16413	-67.67125	720.15409	275.53824	99.45107	1014.24780	-85.79689	-38.46615	595.44710	-119.90249	81.61984	976.32703	-354.15578	-78.59424	469.89680	-274.70075	5.81362	1110.34954	-319.04419	10.25319	601.41348	-334.57148	85.12717	13.13725	-8.97372	-7.48888	-16.97619	3.35647	1.95649	-3.68460	1.10327	0.42953	-5.58225	0.34571	0.05362	-3.09612	3.38308	7.63877	5.11969	0.32114	-1.24245
3	0.02000	1400.09854	785.38419	80.60477	1407.27192	807.89489	-83.65201	1176.43308	455.48222	85.50132	1524.77502	428.63679	-48.32997	1056.59204	107.64423	85.98040	1703.75366	107.33956	-39.75087	930.47029	95.81335	92.98738	1606.73015	25.63792	-41.08724	1520.63347	420.72432	-93.20049	1179.10815	451.52391	131.00178	1716.65505	106.86544	-87.30405	1077.11416	99.28635	129.99178	1406.45715	1287.91296	150.82652	1471.67568	1025.67607	208.69471	1497.73123	799.97080	262.38230	1503.38330	715.37885	270.79001	1376.10906	1287.44343	-111.05075	1306.83799	1037.67991	-206.91750	1120.86079	896.65206	-211.97660	1055.25823	843.59147	-200.18913	1430.91365	884.48224	11.70451	1418.59197	984.27032	21.41886	1430.20317	1057.81577	24.89683	1460.23110	1146.78589	23.69489	1446.82266	1281.79668	18.10596	4185915979477856304811803089567744.00000	0.00000	4185920931238013446332902686064640.00000	1432.92568	890.79625	-34.36773	1435.51099	930.34586	18.19098	1477.18872	879.65172	13.06342	1323.13101	887.49929	-133.66549	1311.05891	849.61520	142.76797	1457.52998	859.11700	-28.22982	1454.31072	849.01455	45.48577	1459.10391	620.11782	-131.25723	1301.69646	623.85679	147.23079	1589.09282	273.21687	-78.75435	1089.50371	251.77991	121.15669	1545.33372	-11.02755	-40.38735	863.52656	119.94829	100.19199	1767.91831	62.72345	-49.00720	1083.27256	34.29753	75.80562	22.01082	-14.78771	-12.43227	-28.07201	5.58990	3.22812	-6.46420	1.80490	0.69788	-9.32683	0.58423	0.08436	-4.90612	5.63717	12.70870	8.67336	0.63571	-1.96369
4	0.03000	1389.04160	786.32894	82.27154	1398.00042	808.47401	-81.94725	1168.13027	454.55391	85.27687	1515.78491	429.19116	-47.84951	1051.66760	105.57003	85.47147	1700.61304	111.21055	-39.73962	925.72588	91.53845	91.60008	1606.23811	26.48945	-42.23180	1512.15950	421.57268	-92.81548	1170.21838	450.77202	130.82304	1713.81992	111.49617	-87.21035	1071.69431	97.70935	129.80153	1396.98657	1286.91504	151.18179	1462.93394	1024.98481	209.61028	1490.08701	799.48586	263.62002	1497.05957	714.92896	271.36267	1367.60908	1286.60613	-110.63689	1298.52896	1036.72952	-206.34672	1111.24541	897.40122	-210.15229	1044.93745	845.48507	-197.26674	1420.85039	885.19727	13.49296	1408.75349	984.69861	22.81722	1420.60127	1057.85488	26.19460	1451.01804	1146.33618	24.98649	1438.28892	1281.03767	18.89613	4185915979477856304811803089567744.00000	0.00000	4185920931238013446332902686064640.00000	1423.36326	891.40870	-32.56862	1425.50537	931.06173	19.93205	1467.09521	880.24348	15.34781	1314.60825	888.20194	-133.00690	1299.53118	850.93326	143.36264	1447.81462	859.67548	-26.10685	1443.79402	849.73716	47.59169	1450.69980	621.11033	-130.22413	1291.11128	624.19564	148.11632	1583.21821	275.17870	-78.68274	1082.69343	250.15162	120.53143	1545.99319	-12.04515	-42.16339	858.32878	114.58303	98.11466	1766.21902	68.70622	-48.82854	1079.72939	32.63897	76.05282	22.35703	-14.28228	-12.28467	-27.40710	5.57727	3.13002	-7.43378	1.70325	0.64388	-9.39606	0.60837	0.06934	-4.14388	5.63330	12.64096	9.09502	0.93716	-1.64252
5	0.04000	1376.23066	787.32516	84.17072	1386.68628	808.76493	-80.05240	1158.17039	453.66386	85.13519	1504.38357	429.32476	-47.45357	1046.13022	103.25256	85.16093	1696.58892	115.80231	-39.79410	920.53171	86.31857	90.55088	1605.95916	27.21578	-43.24330	1501.21228	422.02098	-92.50562	1159.64834	450.03989	130.71691	1709.95940	116.98335	-87.20174	1065.66494	95.99977	129.81010	1385.69285	1285.81633	151.78622	1452.34844	1024.16833	210.67299	1480.95007	798.89966	264.88441	1489.13276	714.41761	272.25366	1357.25671	1285.82136	-109.91340	1288.88472	1035.69333	-205.47132	1100.26738	898.15304	-207.97704	1033.29131	847.32640	-194.23399	1408.90266	885.82343	15.26684	1397.05544	985.08488	24.09163	1409.15288	1057.88706	27.32987	1439.96865	1145.90996	26.12937	1427.93979	1280.34634	19.76256	4185915979477856304811803089567744.00000	0.00000	4185920931238013446332902686064640.00000	1411.83535	891.83702	-30.79596	1413.62256	931.70160	21.55719	1455.11636	880.75739	17.54793	1303.95591	888.49578	-132.17039	1286.35974	852.41412	144.20645	1436.14512	860.06779	-23.98895	1431.45276	850.44602	49.71154	1439.99277	621.77881	-129.11903	1278.78396	624.55425	149.15075	1575.63501	277.14668	-78.65679	1074.83154	248.34625	120.04396	1547.40505	-13.77417	-43.68697	852.59402	107.87103	96.40189	1763.94536	76.19982	-48.81514	1075.95635	30.93578	76.58377	22.64622	-13.65756	-12.05897	-26.72258	5.37746	3.00052	-8.75460	1.52450	0.59388	-9.62267	0.67188	0.06183	-3.05127	5.63076	12.58181	9.66683	1.29656	-1.25222
6	0.05000	1362.54272	788.34711	86.18611	1374.35083	808.91174	-78.06252	1147.38196	452.79294	85.03488	1491.77661	429.24799	-47.09989	1040.28638	100.81345	84.94958	1692.12305	120.75446	-39.88144	915.11267	80.62620	89.67074	1605.78674	27.87950	-44.18827	1489.02844	422.26926	-92.23334	1148.23816	449.31763	130.64708	1705.58618	122.89875	-87.23566	1059.33081	94.22392	129.91808	1373.48755	1284.66724	152.51523	1440.84106	1023.28925	211.80927	1471.06677	798.26282	266.16214	1480.40442	713.87555	273.30380	1345.97815	1285.06287	-109.03510	1278.57288	1034.61426	-204.44360	1088.60803	898.90619	-205.62631	1020.98248	849.14160	-191.14606	1396.01270	886.40515	17.03344	1384.42761	985.45013	25.30406	1396.78125	1057.91577	28.38389	1428.00110	1145.49548	27.19788	1416.68298	1279.68884	20.66712	4185915979477856304811803089567744.00000	0.00000	4185920931238013446332902686064640.00000	1399.32471	892.17328	-29.03652	1400.80115	932.30347	23.12434	1442.19482	881.23236	19.70591	1292.23877	888.58521	-131.24492	1272.36646	853.97638	145.17482	1423.49854	860.37701	-21.87359	1418.19922	851.14801	51.83835	1428.13428	622.28528	-127.97794	1265.58557	624.92273	150.25963	1567.19751	279.11774	-78.65367	1066.44385	246.45235	119.62537	1549.19312	-15.85891	-45.08431	846.59076	100.48566	94.87139	1761.38452	84.44884	-48.88437	1072.06836	29.21028	77.25659	22.90691	-12.97320	-11.79422	-26.02825	5.08404	2.85530	-10.25104	1.30721	0.54589	-9.92798	0.75509	0.05807	-1.79346	5.62890	12.52696	10.31371	1.68493	-0.82736
7	0.06000	1346.90522	789.14600	88.29496	1359.71082	808.94082	-75.97030	1134.68008	451.75482	85.23659	1475.73364	428.72872	-46.53464	1034.11345	97.89870	84.65729	1685.82612	126.92443	-40.15311	909.68440	73.69273	88.95754	1605.59412	28.97009	-45.03010	1473.28372	422.03702	-91.72741	1134.99736	448.38339	130.86132	1699.05957	130.21945	-87.49630	1052.71675	91.99895	129.89987	1359.30698	1283.85820	153.45862	1426.93486	1022.59963	212.96578	1458.95420	797.89510	267.60173	1469.65671	713.63499	274.20853	1333.08394	1284.64187	-108.07437	1266.72288	1033.70232	-202.91746	1075.75337	899.41654	-203.12881	1007.81815	850.31908	-187.86825	1380.93718	886.83391	18.89565	1369.60457	985.69865	26.70632	1382.22480	1057.87292	29.65883	1413.88257	1145.04329	28.51548	1403.35935	1279.04629	21.86530	4185915979477856304811803089567744.00000	0.00000	4185920931238013446332902686064640.00000	1384.52905	892.38612	-27.17898	1385.76313	932.75175	24.80530	1427.09390	881.60168	21.86345	1278.04114	888.49720	-129.99675	1256.49004	855.18385	146.45098	1408.60913	860.58568	-19.72916	1402.86216	851.70212	53.99024	1413.26626	622.45857	-126.65932	1250.57063	625.03091	151.52843	1556.02266	281.31859	-78.56720	1057.12048	244.05436	119.29431	1551.90396	-18.14110	-46.18915	840.56267	91.39352	93.65290	1757.13032	95.13770	-49.38234	1068.23530	27.33220	77.76015	22.89619	-12.40270	-11.54674	-25.40063	4.76947	2.69462	-12.28350	1.11052	0.52133	-10.49301	0.77028	0.05417	-0.02478	5.63288	12.49104	11.07004	2.11338	-0.36186
8	0.07000	1330.80627	790.02909	90.45677	1344.49243	809.01763	-73.83428	1121.67461	450.73410	85.38514	1458.70010	428.14702	-45.87025	1027.96193	94.99642	84.36641	1678.69219	133.42893	-40.47529	904.36942	66.72358	88.31826	1605.18535	30.34996	-45.89248	1456.52375	421.73118	-91.11771	1121.46296	447.44087	131.01714	1691.58347	137.92158	-87.81474	1046.12361	89.78998	129.87456	1344.52234	1283.13408	154.50275	1412.43843	1021.98552	214.16481	1446.21653	797.58956	269.01824	1458.24163	713.47065	275.19006	1319.72930	1284.30239	-107.06276	1254.63726	1032.81033	-201.31684	1062.76052	899.81949	-200.61624	994.64540	851.19327	-184.64517	1365.37817	887.32179	20.76917	1354.32515	986.00492	28.11664	1367.22458	1057.88176	30.93307	1399.32681	1144.63501	29.82113	1389.60259	1278.44368	23.08010	4185915979477856304811803089567744.00000	0.00000	4185920931238013446332902686064640.00000	1369.21707	892.64785	-25.31269	1370.26021	933.25817	26.48527	1411.50947	882.01759	23.99923	1263.25044	888.46829	-128.65823	1240.21741	856.51180	147.83291	1393.19883	860.83833	-17.58795	1387.05669	852.31660	56.14303	1397.59277	622.60891	-125.26582	1235.18247	625.15674	152.79192	1543.91938	283.63544	-78.44108	1047.69656	241.64808	118.94332	1554.73821	-20.21815	-47.28950	834.68314	82.22263	92.53475	1751.95376	106.54365	-49.98611	1064.43484	25.53078	78.27884	22.83480	-11.84884	-11.28009	-24.73290	4.40279	2.53063	-14.43765	0.93814	0.50142	-11.08408	0.80707	0.04518	1.93088	5.63904	12.45143	11.80780	2.55174	0.11423
